<svg xmlns="http://www.w3.org/2000/svg" version="1.1" xmlns:xlink="http://www.w3.org/1999/xlink" xmlns:svgjs="http://svgjs.dev/svgjs" width="2000" height="1900" viewBox="0 0 2000 1900"><g transform="matrix(1,0,0,1,0.9822597580459842,0.7692307692307168)"><svg viewBox="0 0 260 247" data-background-color="#b19dd0" preserveAspectRatio="xMidYMid meet" height="1900" width="2000" xmlns="http://www.w3.org/2000/svg" xmlns:xlink="http://www.w3.org/1999/xlink"><g id="tight-bounds" transform="matrix(1,0,0,1,-0.12769376854598136,-0.09999999999999432)"><svg viewBox="0 0 260.25538753709196 247.2" height="247.2" width="260.25538753709196"><g><svg viewBox="0 0 260.25538753709196 247.2" height="247.2" width="260.25538753709196"><g><svg viewBox="0 0 260.25538753709196 247.2" height="247.2" width="260.25538753709196"><g id="textblocktransform"><svg viewBox="0 0 260.25538753709196 247.2" height="247.2" width="260.25538753709196" id="textblock"><g><svg viewBox="0 0 260.25538753709196 247.2" height="247.2" width="260.25538753709196"><rect width="260.25538753709196" height="247.2" x="0" y="0" opacity="1" fill="#7a26c1" data-fill-palette-color="tertiary"></rect><g transform="matrix(1,0,0,1,23.607599999999998,23.607599999999998)"><svg width="213.04018753709195" viewBox="3.5 -33.7 35.9 33.7" height="199.9848" data-palette-color="#b19dd0"><path d="M8.5-13.3L7.55 0 3.5 0 5.95-33.7 11.1-33.7 15.55-21.4 20.95-5.7Q23.85-13.9 26.65-21.4L26.65-21.4 31.3-33.7 36.45-33.7 39.4 0 35.35 0 34.2-13.3 33-28.25Q30.35-20.85 27.55-13.3L27.55-13.3 22.85-0.75 19-0.75 14.55-13.3 9.45-27.95Q9.45-26 8.5-13.3L8.5-13.3Z" opacity="1" transform="matrix(1,0,0,1,0,0)" fill="#b19dd0" class="wordmark-text-0" data-fill-palette-color="quaternary" id="text-0"></path></svg></g></svg></g></svg></g></svg></g></svg></g><defs></defs></svg><rect width="260.25538753709196" height="247.2" fill="none" stroke="none" visibility="hidden"></rect></g></svg></g></svg>